<svg xmlns="http://www.w3.org/2000/svg" xmlns:xlink="http://www.w3.org/1999/xlink" width="744.09448819" height="1052.3622047" id="svg2" ><defs><perspective type="persp3d" vp_x="0 : 526.18109 : 1" vp_y="0 : 1000 : 0" vp_z="744.09448 : 526.18109 : 1" persp3d-origin="372.04724 : 350.78739 : 1" id="perspective10"/><linearGradient y2="763.25" x2="431.4241" y1="34.625" x1="105.09822" gradientUnits="userSpaceOnUse" id="lg3661" xlink:href="#lg3632"/><linearGradient y2="763.25" x2="431.4241" y1="34.625" x1="105.09822" gradientUnits="userSpaceOnUse" id="lg3648" xlink:href="#lg3632"/><linearGradient gradientUnits="userSpaceOnUse" y2="763.25" x2="431.4241" y1="34.625" x1="105.09822" id="lg3638" xlink:href="#lg3632"/><perspective type="persp3d" vp_x="0 : 0.5 : 1" vp_y="0 : 1000 : 0" vp_z="1 : 0.5 : 1" persp3d-origin="0.5 : 0.33333333 : 1" id="perspective2838"/><perspective id="perspective10-4" persp3d-origin="372.04724 : 350.78739 : 1" vp_z="744.09448 : 526.18109 : 1" vp_y="0 : 1000 : 0" vp_x="0 : 526.18109 : 1" type="persp3d"/><linearGradient id="lg3632" ><stop offset="0" style="stop-color:#ffffff;stop-opacity:1"/><stop offset="1" style="stop-color:#cccccc;stop-opacity:0.38493723"/></linearGradient><perspective id="perspective2884" persp3d-origin="0.5 : 0.33333333 : 1" vp_z="1 : 0.5 : 1" vp_y="0 : 1000 : 0" vp_x="0 : 0.5 : 1" type="persp3d"/><linearGradient xlink:href="#lg3632" id="lg2929" gradientUnits="userSpaceOnUse" x1="105.09822" y1="34.625" x2="431.4241" y2="763.25" gradientTransform="translate(-1479.7791,501.48068)"/></defs><metadata id="metadata7"></metadata><g label="Layer 1" groupmode="layer" id="layer1"><g transform="translate(152.14286,-583.57143)" id="layer1-4" label="Layer 1"><g transform="matrix(0.71926378,0,0,0.71926378,-158.44317,107.78954)" ><g transform="matrix(0.19855065,0,0,0.19855065,344.49731,720.95744)"><g /><g transform="translate(-152.62895,-12.973732)" ><path transform="matrix(0.99144486,-0.13052617,0.13052617,0.99144486,-67.031012,53.457396)" d="M 233.26143,11.766697 646.7237,66.200043 900.59549,397.0522 846.16214,810.51447 515.30998,1064.3863 101.84771,1009.9529 -152.02407,679.10075 -97.590728,265.63848 z" randomized="0" rounded="0" flatsided="true" arg2="-1.4398966" arg1="-1.8325957" r2="503.39972" r1="544.87598" cy="538.07648" cx="374.28571" sides="8" style="fill:#ffffff;fill-rule:nonzero;stroke:#000000;stroke-width:0.1;stroke-linecap:round;stroke-linejoin:round;stroke-miterlimit:4;" type="star"/><path type="star" style="fill:#ff0000;fill-rule:nonzero;stroke:#000000;stroke-width:0.1;stroke-linecap:round;stroke-linejoin:round;stroke-miterlimit:4;" sides="8" cx="374.28571" cy="538.07648" r1="544.87598" r2="503.39972" arg1="-1.8325957" arg2="-1.4398966" flatsided="true" rounded="0" randomized="0" d="M 233.26143,11.766697 646.7237,66.200043 900.59549,397.0522 846.16214,810.51447 515.30998,1064.3863 101.84771,1009.9529 -152.02407,679.10075 -97.590728,265.63848 z" transform="matrix(0.88796396,-0.11690267,0.11690267,0.88796396,-20.969109,104.03895)"/><text y="612.14941" x="-45.090439" style="font-size:206.95957947px;fill:#ffffff;stroke:none;font-family:Bitstream Vera Sans" ><tspan y="612.14941" x="-45.090439" role="line">UWAGA!</tspan></text><path style="opacity:0.5;fill:url(#lg2929);fill-rule:nonzero;stroke:#000000;stroke-width:0.1;stroke-linecap:round;stroke-linejoin:round;stroke-miterlimit:4;" d="m 165.78125,34.6875 -294.90625,294.875 0,417.03125 16.59375,16.59375 c 0,0 248.6701,-187.63855 415.375,-250.8125 C 469.54865,449.20105 877.6875,407.03125 877.6875,407.03125 l 0,-77.46875 -294.875,-294.875 -417.03125,0 z"/></g></g><path transform="matrix(1.3903105,0,0,1.3903105,8.7593873,661.48457)" style="color:#000000;fill:none;stroke:#333333;stroke-width:1;stroke-linecap:butt;stroke-linejoin:round;stroke-miterlimit:4;enable-background:new" d="m 426.17749,53.251884 102.14171,0 0,102.141706 -102.14171,0 z"/><path style="fill:#cccccc;stroke:none;enable-background:new" d="m 209.53031,988.52521 249.73941,0 0,186.08039 -249.73941,0 z"/></g></g></g></svg>